<svg xmlns="http://www.w3.org/2000/svg" viewBox="0 0 64 64">
  <defs>
    <linearGradient id="bg" x1="8" y1="6" x2="56" y2="58" gradientUnits="userSpaceOnUse">
      <stop offset="0" stop-color="#0f172a"/>
      <stop offset="1" stop-color="#020617"/>
    </linearGradient>
    <linearGradient id="flow" x1="18" y1="44" x2="48" y2="18" gradientUnits="userSpaceOnUse">
      <stop offset="0" stop-color="#2dd4bf"/>
      <stop offset="0.55" stop-color="#38bdf8"/>
      <stop offset="1" stop-color="#f59e0b"/>
    </linearGradient>
    <filter id="shadow" x="-20%" y="-20%" width="140%" height="140%">
      <feDropShadow dx="0" dy="2" stdDeviation="2" flood-color="#020617" flood-opacity="0.45"/>
    </filter>
  </defs>

  <rect x="3" y="3" width="58" height="58" rx="18" fill="url(#bg)"/>
  <rect x="3" y="3" width="58" height="58" rx="18" fill="none" stroke="#334155" stroke-opacity="0.5"/>

  <g filter="url(#shadow)">
    <circle cx="18" cy="42" r="8" fill="none" stroke="#e2e8f0" stroke-width="4"/>
    <circle cx="18" cy="42" r="2.5" fill="#e2e8f0"/>
    <circle cx="14" cy="29" r="1.5" fill="#5eead4"/>

    <path
      d="M26 42H33L44 31"
      fill="none"
      stroke="url(#flow)"
      stroke-width="6"
      stroke-linecap="round"
      stroke-linejoin="round"
    />
    <path
      d="M36 31H44V39"
      fill="none"
      stroke="url(#flow)"
      stroke-width="6"
      stroke-linecap="round"
      stroke-linejoin="round"
    />

    <rect x="40" y="14" width="14" height="14" rx="4" fill="#f8fafc"/>
    <rect x="40" y="14" width="14" height="14" rx="4" fill="url(#flow)" opacity="0.18"/>
    <rect x="44" y="18" width="2.5" height="2.5" rx="1" fill="#0f172a"/>
    <rect x="48" y="18" width="2.5" height="2.5" rx="1" fill="#0f172a"/>
    <rect x="44" y="22" width="2.5" height="2.5" rx="1" fill="#0f172a"/>
    <rect x="48" y="22" width="2.5" height="2.5" rx="1" fill="#0f172a"/>
  </g>
</svg>
